<?xml version="1.0" encoding="UTF-8"?><svg id="Calque_1" xmlns="http://www.w3.org/2000/svg" viewBox="0 0 900 900"><defs><style>.cls-1{fill:#fff;}.cls-2{fill:#3c3c3b;}</style></defs><path class="cls-2" d="M603.69,107.28c-193.16-86.38-419.77,.19-506.15,193.35-86.38,193.16,.19,419.77,193.35,506.15L603.69,107.28Z"/><path class="cls-2" d="M612.78,111.34c193.16,86.38,279.73,312.99,193.35,506.15-86.38,193.16-312.99,279.73-506.15,193.35L612.78,111.34Z"/><polygon class="cls-1" points="140.89 586.76 241.01 722.08 308.44 567.5 140.89 586.76"/><polygon class="cls-1" points="337.96 545.66 268.59 704.69 286.9 729.45 380.94 513.85 147.27 540.72 165.59 565.47 337.96 545.66"/><polygon class="cls-1" points="759.03 334.26 658.91 198.94 591.49 353.52 759.03 334.26"/><polygon class="cls-1" points="736.58 440.02 713.71 409.11 480.04 435.97 574.08 220.38 551.21 189.47 437.81 449.45 163.35 481 186.21 511.91 419.88 485.05 325.84 700.64 348.71 731.55 462.11 471.57 736.58 440.02"/><polygon class="cls-1" points="561.97 375.36 631.33 216.33 613.02 191.57 518.98 407.16 752.65 380.3 734.33 355.54 561.97 375.36"/><path class="cls-1" d="M373.41,428.76l-157.95-.68,.43-101.09c.05-11.06,2.12-20.65,6.24-28.8,4.11-8.14,9.07-14.04,14.89-17.71,5.8-3.66,11.61-6.53,17.41-8.61,5.8-2.08,10.68-3.24,14.63-3.49l6.32-.36-.48,112.94,78.98,.34c11.58,.05,20.68-3.2,27.29-9.75,6.61-6.55,10.32-13.12,11.14-19.7l1.23-9.87,.27-63.18-1.92-12.25c-5.72-17.92-18.19-27.06-37.4-27.41l-78.98-.34c-11.06-.05-20.67,.9-28.84,2.84-8.17,1.94-14.11,4.42-17.8,7.43-3.7,3.01-6.61,5.96-8.73,8.84-2.12,2.89-3.32,5.38-3.59,7.49l-.41,2.76,.33-77,157.95,.68c14.74,.06,27.49,2.82,38.27,8.26,10.77,5.45,18.64,12.06,23.61,19.84,4.96,7.79,8.88,15.58,11.74,23.35,2.86,7.78,4.41,14.43,4.65,19.96l.36,7.9-.34,78.98-2.05,16.97c-6.71,30.77-23.25,50.05-49.61,57.84-8.7,2.6-17.92,3.87-27.66,3.83Z"/><path class="cls-1" d="M709.48,729.75l-78.98-.41-97.89-159.26-.84,159.53-59.54,58.13,1.55-296.16,74.92,.3,101.95,158.98,.83-158.59,59.23,.21-1.24,237.27Z"/><polygon class="cls-2" points="466.62 419.01 471.24 444.55 494.9 455.23 472.03 467.51 469.19 493.31 450.44 475.36 425.03 480.63 436.3 457.25 423.44 434.71 449.16 438.21 466.62 419.01"/></svg>