<?xml version="1.0" encoding="UTF-8"?><svg id="Calque_1" xmlns="http://www.w3.org/2000/svg" viewBox="0 0 900 900"><defs><style>.cls-1{fill:#3c3c3b;}</style></defs><polygon class="cls-1" points="50.65 587.62 178.04 759.81 263.84 563.11 50.65 587.62"/><polygon class="cls-1" points="301.41 535.32 213.14 737.68 236.44 769.18 356.11 494.85 58.77 529.03 82.07 560.53 301.41 535.32"/><polygon class="cls-1" points="837.21 266.31 709.82 94.12 624.02 290.82 837.21 266.31"/><polygon class="cls-1" points="586.45 318.61 674.72 116.25 651.42 84.75 531.75 359.08 829.09 324.9 805.79 293.4 586.45 318.61"/><path class="cls-1" d="M346.52,386.57l-200.99-.86,.55-128.63c.06-14.07,2.7-26.28,7.94-36.65,5.23-10.36,11.55-17.87,18.94-22.53,7.38-4.66,14.77-8.31,22.16-10.96,7.38-2.65,13.58-4.13,18.61-4.45l8.04-.46-.62,143.71,100.5,.43c14.74,.06,26.31-4.07,34.73-12.41,8.41-8.33,13.14-16.7,14.18-25.07l1.56-12.55,.34-80.39-2.44-15.59c-7.28-22.81-23.14-34.44-47.59-34.87l-100.5-.43c-14.07-.06-26.31,1.14-36.7,3.61-10.4,2.46-17.95,5.62-22.65,9.45-4.71,3.83-8.41,7.58-11.1,11.25-2.7,3.68-4.22,6.85-4.56,9.53l-.52,3.51,.42-97.98,200.99,.86c18.76,.08,34.99,3.59,48.7,10.51,13.7,6.93,23.72,15.35,30.04,25.25,6.32,9.92,11.3,19.82,14.95,29.71,3.64,9.9,5.62,18.36,5.92,25.4l.46,10.05-.43,100.5-2.6,21.59c-8.54,39.16-29.59,63.69-63.13,73.6-11.07,3.31-22.81,4.93-35.2,4.87Z"/><path class="cls-1" d="M774.17,769.57l-100.49-.53-124.56-202.66-1.06,203-75.76,73.97,1.98-376.86,95.33,.38,129.73,202.3,1.06-201.8,75.37,.26-1.58,301.92Z"/><g><polygon class="cls-1" points="444.54 445.86 412.2 452.57 426.55 422.82 421.35 413.71 79.22 453.04 108.32 492.37 405.66 458.19 285.99 732.52 315.09 771.85 453.53 454.47 444.54 445.86"/><polygon class="cls-1" points="442.91 398.59 465.13 374.16 471.01 406.66 501.11 420.24 472.02 435.87 471.6 439.64 808.64 400.89 779.54 361.56 482.2 395.74 601.87 121.41 572.77 82.08 435.17 397.54 442.91 398.59"/></g></svg>