<?xml version="1.0" encoding="UTF-8"?><svg id="Calque_1" xmlns="http://www.w3.org/2000/svg" xmlns:xlink="http://www.w3.org/1999/xlink" viewBox="0 0 900 900"><defs><style>.cls-1{fill:#fff;}.cls-2{fill:#2d2e83;}.cls-3{fill:#7d2082;}.cls-4{fill:url(#Dégradé_sans_nom_3);}</style><linearGradient id="Dégradé_sans_nom_3" x1="442.6" y1="455.19" x2="460.72" y2="468.79" gradientUnits="userSpaceOnUse"><stop offset="0" stop-color="#27348b"/><stop offset="1" stop-color="#82368c"/></linearGradient></defs><path class="cls-3" d="M599.51,111.94c-193.16-86.38-419.77,.19-506.15,193.35-86.38,193.16,.19,419.77,193.35,506.15L599.51,111.94Z"/><path class="cls-2" d="M608.6,116c193.16,86.38,279.73,312.99,193.35,506.15-86.38,193.16-312.99,279.73-506.15,193.35L608.6,116Z"/><polygon class="cls-1" points="136.71 591.42 236.83 726.74 304.26 572.16 136.71 591.42"/><polygon class="cls-1" points="333.78 550.32 264.41 709.35 282.73 734.1 376.76 518.51 143.1 545.38 161.41 570.13 333.78 550.32"/><polygon class="cls-1" points="754.85 338.92 654.74 203.6 587.31 358.18 754.85 338.92"/><polygon class="cls-1" points="732.4 444.68 709.53 413.77 475.86 440.63 569.9 225.04 547.03 194.13 433.63 454.1 159.17 485.66 182.04 516.57 415.7 489.7 321.67 705.3 344.53 736.2 457.93 476.23 732.4 444.68"/><polygon class="cls-1" points="557.79 380.02 627.16 220.99 608.84 196.23 514.8 411.82 748.47 384.96 730.15 360.2 557.79 380.02"/><path class="cls-1" d="M369.23,433.42l-157.95-.68,.43-101.09c.05-11.06,2.12-20.65,6.24-28.8,4.11-8.14,9.07-14.04,14.89-17.71,5.8-3.66,11.61-6.53,17.41-8.61,5.8-2.08,10.68-3.24,14.63-3.49l6.32-.36-.48,112.94,78.98,.34c11.58,.05,20.68-3.2,27.29-9.75,6.61-6.55,10.32-13.12,11.14-19.7l1.23-9.87,.27-63.18-1.92-12.25c-5.72-17.92-18.19-27.06-37.4-27.41l-78.98-.34c-11.06-.05-20.67,.9-28.84,2.84-8.17,1.94-14.11,4.42-17.8,7.43-3.7,3.01-6.61,5.96-8.73,8.84-2.12,2.89-3.32,5.38-3.59,7.49l-.41,2.76,.33-77,157.95,.68c14.74,.06,27.49,2.82,38.27,8.26,10.77,5.45,18.64,12.06,23.61,19.84,4.96,7.79,8.88,15.58,11.74,23.35,2.86,7.78,4.41,14.43,4.65,19.96l.36,7.9-.34,78.98-2.05,16.97c-6.71,30.77-23.25,50.05-49.61,57.84-8.7,2.6-17.92,3.87-27.66,3.83Z"/><path class="cls-1" d="M705.31,734.41l-78.98-.41-97.89-159.26-.84,159.53-59.54,58.13,1.55-296.16,74.92,.3,101.95,158.98,.83-158.59,59.23,.21-1.24,237.27Z"/><polygon class="cls-4" points="462.44 423.67 467.06 449.21 490.72 459.88 467.85 472.17 465.01 497.97 446.26 480.02 420.85 485.29 432.13 461.91 419.26 439.37 444.98 442.87 462.44 423.67"/></svg>