<?xml version="1.0" encoding="UTF-8"?><svg id="Calque_1" xmlns="http://www.w3.org/2000/svg" viewBox="0 0 900 900"><defs><style>.cls-1{fill:#fff;}.cls-2{fill:#2d2e83;}.cls-3{fill:#7d2082;}</style></defs><polygon class="cls-2" points="55.72 591.71 183.44 764.34 269.46 567.14 55.72 591.71"/><polygon class="cls-2" points="113.54 496.22 411.63 461.96 291.66 736.99 320.84 776.42 480.09 411.3 84.36 456.79 113.54 496.22"/><polygon class="cls-2" points="307.11 539.28 218.62 742.16 241.99 773.74 361.95 498.71 63.86 532.98 87.23 564.56 307.11 539.28"/><polygon class="cls-3" points="844.28 269.6 716.56 96.97 630.54 294.17 844.28 269.6"/><polygon class="cls-3" points="786.46 365.09 488.37 399.36 608.34 124.33 579.16 84.9 419.91 450.01 815.64 404.52 786.46 365.09"/><polygon class="cls-3" points="592.89 322.03 681.38 119.16 658.01 87.57 538.05 362.6 836.14 328.34 812.77 296.75 592.89 322.03"/><polygon class="cls-1" points="460.27 390.25 464.92 417.49 490 429.1 465.53 441.94 462.24 469.38 442.46 450.08 415.35 455.43 427.6 430.65 414.13 406.52 441.48 410.51 460.27 390.25"/><path class="cls-3" d="M352.34,390.16l-201.5-.86,.55-128.96c.06-14.11,2.71-26.35,7.96-36.74,5.25-10.38,11.58-17.91,18.99-22.59,7.4-4.67,14.81-8.33,22.21-10.99,7.39-2.65,13.62-4.14,18.66-4.46l8.06-.46-.62,144.07,100.75,.43c14.78,.06,26.38-4.08,34.81-12.44,8.43-8.35,13.17-16.74,14.21-25.13l1.56-12.59,.35-80.6-2.45-15.63c-7.3-22.87-23.2-34.52-47.71-34.96l-100.75-.43c-14.11-.06-26.37,1.14-36.79,3.62-10.42,2.47-17.99,5.64-22.71,9.48-4.72,3.84-8.43,7.6-11.13,11.28-2.71,3.69-4.23,6.87-4.57,9.55l-.52,3.52,.42-98.23,201.5,.86c18.8,.08,35.07,3.6,48.82,10.54,13.74,6.95,23.78,15.39,30.12,25.31,6.33,9.94,11.33,19.87,14.98,29.79,3.65,9.93,5.63,18.41,5.94,25.46l.46,10.08-.43,100.75-2.61,21.65c-8.57,39.26-29.66,63.85-63.29,73.78-11.1,3.31-22.86,4.94-35.28,4.88Z"/><path class="cls-2" d="M781.07,774.13l-100.75-.53-124.88-203.17-1.07,203.51-75.95,74.16,1.98-377.81,95.57,.38,130.06,202.81,1.06-202.31,75.56,.27-1.59,302.69Z"/><polygon class="cls-1" points="460.27 390.25 464.92 417.49 490 429.1 465.53 441.94 462.24 469.38 442.46 450.08 415.35 455.43 427.6 430.65 414.13 406.52 441.48 410.51 460.27 390.25"/></svg>