<?xml version="1.0" encoding="UTF-8"?><svg id="Calque_1" xmlns="http://www.w3.org/2000/svg" viewBox="0 0 900 900"><defs><style>.cls-1{fill:#fff;}</style></defs><polygon class="cls-1" points="57.68 580.59 185.07 752.78 270.87 556.08 57.68 580.59"/><polygon class="cls-1" points="308.44 528.29 220.17 730.65 243.48 762.15 363.14 487.82 65.8 522 89.11 553.5 308.44 528.29"/><polygon class="cls-1" points="844.24 259.29 716.85 87.09 631.05 283.79 844.24 259.29"/><polygon class="cls-1" points="593.49 311.59 681.75 109.22 658.45 77.72 538.78 352.06 836.12 317.87 812.82 286.37 593.49 311.59"/><path class="cls-1" d="M353.55,379.54l-200.99-.86,.55-128.63c.06-14.07,2.7-26.28,7.94-36.65,5.23-10.36,11.55-17.87,18.94-22.53,7.38-4.66,14.77-8.31,22.16-10.96,7.38-2.65,13.58-4.13,18.61-4.45l8.04-.46-.62,143.71,100.5,.43c14.74,.06,26.31-4.07,34.73-12.41,8.41-8.33,13.14-16.7,14.18-25.07l1.56-12.55,.34-80.39-2.44-15.59c-7.28-22.81-23.14-34.44-47.59-34.87l-100.5-.43c-14.07-.06-26.31,1.14-36.7,3.61-10.4,2.46-17.95,5.62-22.65,9.45-4.71,3.83-8.41,7.58-11.1,11.25-2.7,3.68-4.22,6.85-4.56,9.53l-.52,3.51,.42-97.98,200.99,.86c18.76,.08,34.99,3.59,48.7,10.51,13.7,6.93,23.72,15.35,30.04,25.25,6.32,9.92,11.3,19.82,14.95,29.71,3.64,9.9,5.62,18.36,5.92,25.4l.46,10.05-.43,100.5-2.6,21.59c-8.54,39.16-29.59,63.69-63.13,73.6-11.07,3.31-22.81,4.93-35.2,4.87Z"/><path class="cls-1" d="M781.2,762.54l-100.49-.53-124.56-202.66-1.06,203-75.76,73.97,1.98-376.86,95.33,.38,129.73,202.3,1.06-201.8,75.37,.26-1.58,301.92Z"/><g><polygon class="cls-1" points="451.57 438.83 419.23 445.54 433.58 415.79 428.38 406.68 86.25 446.01 115.35 485.34 412.69 451.16 293.03 725.49 322.12 764.82 460.56 447.44 451.57 438.83"/><polygon class="cls-1" points="449.94 391.56 472.16 367.13 478.04 399.63 508.14 413.21 479.05 428.84 478.63 432.61 815.67 393.86 786.57 354.53 489.24 388.71 608.9 114.38 579.8 75.05 442.2 390.51 449.94 391.56"/></g></svg>